<?xml version="1.0" encoding="UTF-8"?><svg id="Layer_1" xmlns="http://www.w3.org/2000/svg" viewBox="0 0 91.07 70.13"><defs><style>.cls-1{fill:#00add4;}.cls-2{fill:#fff;}.cls-3{fill:#f74c00;}.cls-4{fill:#a52b00;}</style></defs><path class="cls-1" d="M8.18,50.64c.37-.17,.79-.34,1.25-.52v.02s.76-.3,2.07-.71c1.44-.44,3.01-.86,4.44-1.21,2.48-.57,5.43-1.08,8.44-1.19,1.01-1.24,3.05-3.54,5.46-5.21-1.43-.54-2.97-1.01-4.66-1.36-.32-.07-.48-.43-.32-.72l11.12-19.01c.37-.62,1.27-.62,1.63,0l2.45,4.19c2.75-2.28,6-3.96,9.56-4.87L38.44,.95c-.74-1.27-2.58-1.27-3.32,0L6.89,49.23c-.5,.85,.4,1.83,1.29,1.41Z"/><g id="Layer-1"><path class="cls-4" d="M56.28,37.87c-7.16,0-13.59,.99-17.91,2.54v9.35c4.32,1.55,10.74,2.54,17.91,2.54,6.26,0,11.92-.75,16.18-1.98h0c1.75-.56,3.28-1.22,4.43-1.95-.41,1.01-1.11,2.37-1.69,3.39-1.23,1.91-1.68,3.59-1.62,3.67,.04,.05,.46-.5,1.08-1.39,1.45-1.74,4.19-5.07,4.73-5.92,.62-.96,.27-1.42,.27-1.42l-.44-.78c.13-.32,.2-.65,.2-.98,0-2.11-2.71-4.01-6.97-5.38v.28c-4.26-1.23-9.92-1.98-16.18-1.98"/><path class="cls-4" d="M31.94,46.55s-.3,.46,.24,1.45c.48,.87,2.87,4.3,4.13,6.1,.54,.92,.91,1.48,.94,1.43,.05-.08-.34-1.8-1.42-3.76-.65-1.37-1.48-3.33-1.72-4.29,.82,.71,1.96,1.38,3.36,1.97v-9.17c-3.01,1.27-4.81,2.86-4.81,4.58,0,.06,0,.12,0,.17l-.73,1.52"/><path class="cls-3" d="M27.68,46.54s-.72,.38,0,1.73c.64,1.19,4.12,6.09,5.97,8.65,.75,1.27,1.27,2.07,1.35,2.02,.12-.07-.09-2.16-1.53-4.84-1.06-2.36-2.35-5.92-1.85-6.21,0,0,1.44-1.28,3.82-.85,20.84,10.19,43.31-.18,43.31-.18,.04-.03-.04,.03,0,0,1.06,.48,1.6,1.16,1.6,1.16,.47,.4-1.52,3.86-3.06,6.12-1.99,2.51-2.59,4.65-2.47,4.75,.07,.06,.76-.67,1.77-1.84,2.39-2.32,6.92-6.74,7.8-7.85,1-1.26,.31-1.8,.31-1.8l-4.48-4.76s-.02-.08-.04-.12l1.58-2.3c.16-.23,.19-.54,.09-.8-.11-.27-.34-.46-.61-.5l-2.68-.45c-.1-.21-.21-.42-.32-.63l1.13-2.58c.11-.26,.09-.57-.06-.81-.15-.24-.42-.38-.69-.37l-2.72,.1c-.14-.18-.28-.36-.43-.54l.62-2.76c.06-.28-.02-.57-.21-.78-.19-.2-.48-.29-.75-.22l-2.65,.65c-.17-.15-.35-.3-.52-.45l.09-2.84c.01-.29-.12-.56-.35-.72-.23-.16-.52-.18-.77-.07l-2.47,1.17c-.2-.11-.4-.23-.6-.34l-.44-2.79c-.04-.28-.23-.52-.48-.63-.25-.11-.55-.08-.77,.09l-2.2,1.65c-.22-.07-.44-.14-.66-.21l-.95-2.65c-.1-.27-.32-.47-.59-.52-.27-.06-.55,.04-.74,.25l-1.85,2.07c-.22-.03-.45-.05-.67-.07l-1.43-2.41c-.14-.24-.4-.39-.68-.39s-.53,.15-.68,.39l-1.43,2.41c-.22,.02-.45,.04-.67,.07l-1.85-2.07c-.19-.21-.47-.3-.74-.25-.27,.06-.49,.25-.59,.52l-.95,2.65c-.22,.07-.44,.14-.66,.21l-2.2-1.65c-.22-.17-.51-.2-.77-.09-.26,.11-.44,.35-.48,.63l-.44,2.79c-.2,.11-.4,.22-.6,.34l-2.47-1.17c-.25-.12-.54-.09-.77,.07-.23,.16-.36,.43-.35,.72l.1,2.84c-.18,.15-.35,.3-.52,.45l-2.65-.65c-.27-.07-.55,.02-.74,.22-.2,.2-.28,.5-.21,.78l.62,2.76c-.15,.18-.29,.36-.43,.54l-2.72-.1c-.28-.01-.54,.13-.69,.37-.15,.24-.18,.54-.06,.81l1.13,2.58c-.11,.21-.22,.42-.32,.63l-2.68,.45c-.27,.05-.5,.24-.61,.5-.11,.27-.07,.57,.09,.8l1.58,2.3c-.05,.16-.09,.31-.14,.47l-4.82,3.55"/><path d="M44.45,53.1v-1.63c.51-.71,5.32-7.09,11.32,.83l-7.36,.68s.05,.04,.13,.12h-4.1Z"/><path class="cls-3" d="M78.04,47.15c8.26-4.33,8.57-7.92,8.57-7.92,9.19-6.69,1.34-10.46,1.34-10.46,.11,4.27-2.41,6.7-2.41,6.7l-.23-7.67c-8.52,6.02-1.4,11.68-1.4,11.68-1.03,2.54-7.09,4.91-7.09,4.91l1.23,2.77Z"/><path d="M47.73,40.37s2.25-2.46,4.49,0c0,0,1.76,3.28,0,4.92,0,0-2.89,2.29-4.49,0,0,0-1.92-1.8,0-4.92"/><path class="cls-2" d="M50.32,41.28c0,.96-.56,1.73-1.26,1.73s-1.26-.78-1.26-1.73c0-.96,.56-1.73,1.26-1.73s1.26,.78,1.26,1.73"/><path d="M59.23,39.53s3.85-1.71,4.9,2.1c0,0,1.1,4.44-3.16,4.69-.68,.12-5.51-.98-1.74-6.79"/><path class="cls-2" d="M61.17,41.18c0,.99-.58,1.79-1.3,1.79s-1.3-.8-1.3-1.79,.58-1.79,1.3-1.79,1.3,.8,1.3,1.79"/><path class="cls-3" d="M35.2,45.31c.62,6.36,8.29,9.32,8.29,9.32,7.26,8.26,12.03,2.54,12.03,2.54-4.98,.12-7.45-3.67-7.45-3.67,5.37-1.42,7.37-.25,7.37-.25-6.43-9.32-10.97-1.05-10.97-1.05l-1.4-.33c-5-3.37-5.81-6.57-5.81-6.57h-2.07Z"/></g><path class="cls-1" d="M69.2,53.54l2.47,4.22h0c1.24,2.12,.8,4.83-1.05,6.45l-.15,.13c-.12,.1-.83,.71-2.03,1.5-.02,.02-11.4,7.22-23,2.92h0c-7.01-2.56-13.76-7.01-19.66-8.11-9.93-1.85-20.95,3.3-25.04,5.49-.46,.24-.94-.28-.66-.72,1.78-2.8,5.16-7.25,10.23-10.51,11.9-6.78,22.5-2.59,28,.69,5.5,3.28,9.61,3.93,9.61,3.93,1.43,.33,2.85,.5,4.27,.5,2.22,0,4.21-.42,5.88-.97,.84-.28,1.21-1.26,.77-2.02l-1.25-2.13c3.33,.05,8.37-.34,11.61-1.36Z"/><path d="M53.29,47.54l4.91-.39s-.17,.79-.81,1.38c0,0-1.69,1.85-3.62-.15,0,0-.32-.34-.48-.84"/></svg>